<svg width="16" height="17" viewBox="0 0 16 17" fill="none" xmlns="http://www.w3.org/2000/svg">
<mask id="mask0_77_97" style="mask-type:alpha" maskUnits="userSpaceOnUse" x="0" y="0" width="16" height="17">
<path d="M5.06963 6.63702V6.51007C5.06963 6.18827 5.32394 5.92137 5.6517 5.89919L8.0391 5.73765L11.3407 10.665V6.34042L10.4909 6.22561V6.16531C10.4909 5.83972 10.751 5.57107 11.0829 5.55383L13.2552 5.44106V5.75788C13.2552 5.90661 13.1461 6.03382 12.9965 6.05946L12.4738 6.14907V13.1526L11.8177 13.3813C11.2696 13.5723 10.6595 13.3678 10.3457 12.888L7.14044 7.98607V12.6647L8.12701 12.856L8.11327 12.9488C8.07022 13.2393 7.82274 13.459 7.52336 13.4725L5.06963 13.5832C5.03719 13.2708 5.26821 12.9913 5.58691 12.9574L5.90968 12.923V6.68486L5.06963 6.63702Z" fill="black"/>
<path fill-rule="evenodd" clip-rule="evenodd" d="M10.883 0.00456855L1.04598 0.685237C0.456747 0.726008 0 1.20611 0 1.7847V11.4815C0 12.0251 0.184648 12.5533 0.524857 12.9829L2.64587 15.6608C2.98879 16.0937 3.52846 16.3321 4.08679 16.2973L15.0048 15.6162C15.5644 15.5813 16 15.1265 16 14.5773V3.55299C16 3.2132 15.8307 2.8948 15.5464 2.70002L12.0902 0.331763C11.738 0.0904091 11.3118 -0.0251016 10.883 0.00456855ZM1.53378 1.93595C1.39696 1.83329 1.46207 1.61942 1.63395 1.60693L10.9492 0.929773C11.246 0.908198 11.5409 0.99103 11.7809 1.16338L13.65 2.50541C13.7209 2.55636 13.6876 2.66635 13.5998 2.67119L3.73498 3.21493C3.43644 3.23139 3.14176 3.1425 2.90439 2.96439L1.53378 1.93595ZM3.27228 4.91952C3.27228 4.59472 3.53119 4.32643 3.86226 4.30816L14.2922 3.73249C14.6148 3.71468 14.8864 3.96616 14.8864 4.28272V13.8286C14.8864 14.1528 14.6285 14.4208 14.298 14.4399L3.93418 15.0375C3.57509 15.0582 3.27228 14.7786 3.27228 14.4263V4.91952Z" fill="black"/>
</mask>
<g mask="url(#mask0_77_97)">
<rect width="16" height="16.3" fill="#E1E1E1"/>
</g>
</svg>
